<svg xmlns="http://www.w3.org/2000/svg" version="1.1" viewBox="-5.0 -10.0 110.0 135.0">
 <g>
  <path d="m59.168 50.664c-1.957 4.5938-1.8242 9 0.38281 12.414s6.168 5.3516 11.156 5.4609c0.14062 0 0.28125 0.003907 0.42578 0.003907 4.6445 0 9.6602-1.5898 14.168-4.5 9.7812-6.3164 14.141-17.02 9.7227-23.867-4.418-6.8438-15.969-7.2734-25.75-0.96094-4.6484 3-8.2344 7.0664-10.102 11.449zm24.305-12.852c3.8906 0 7.1797 1.3516 8.9219 4.0586 3.4844 5.3984-0.46094 14.164-8.793 19.543-4.1289 2.6641-8.6914 4.1055-12.832 3.9961-3.9219-0.082031-6.9766-1.5117-8.5977-4.0312-1.625-2.5156-1.6719-5.8867-0.13281-9.4961 1.625-3.8164 4.7969-7.3828 8.9219-10.051 4.1562-2.6836 8.6328-4.0234 12.508-4.0234z"/>
  <path d="m66.547 57.461c1.1836 1.8359 3.3555 2.75 5.9453 2.75 2.6133 0 5.6484-0.92969 8.5312-2.793 2.6133-1.6875 4.6992-3.8984 5.8672-6.2266 1.3047-2.5977 1.3516-5.0664 0.12891-6.9531-0.46875-0.72656-1.4336-0.93359-2.1602-0.46484s-0.93359 1.4336-0.46484 2.1602c0.58594 0.90625 0.47656 2.3125-0.29688 3.8555-0.90625 1.8086-2.6445 3.6328-4.7695 5.0039-4.4883 2.8984-8.9531 2.8359-10.16 0.97266-0.46875-0.72656-1.4375-0.93359-2.1602-0.46484-0.72656 0.46875-0.93359 1.4336-0.46484 2.1602z"/>
  <path d="m21.648 62.305c2.7656 0.73437 5.5039 1.082 8.1172 1.082 8.9414 0 16.395-4.0664 18.145-10.668 2.2656-8.5273-5.8359-18.105-18.055-21.352-12.219-3.2422-24 1.0586-26.266 9.5859s5.8359 18.105 18.055 21.352zm-15.039-20.551c1.3828-5.2031 7.5078-8.3633 14.992-8.3633 2.3828 0 4.9062 0.32031 7.4531 0.99609 10.555 2.8008 17.656 10.664 15.836 17.527-1.8242 6.8633-11.895 10.164-22.445 7.3672-10.555-2.8008-17.656-10.664-15.836-17.527z"/>
  <path d="m23.855 53.977c1.7461 0.46094 3.4961 0.69531 5.1641 0.69531 1.4531 0 2.8438-0.17578 4.1055-0.53125 3.0078-0.83984 5-2.582 5.6172-4.9062 0.22266-0.83594-0.27734-1.6914-1.1094-1.9102-0.83594-0.21484-1.6875 0.27734-1.9102 1.1094-0.42969 1.6289-2.3398 2.3906-3.4375 2.6953-2.1875 0.60938-4.8984 0.54688-7.6289-0.17578-2.7344-0.72656-5.1172-2.0156-6.7109-3.6289-0.80078-0.8125-2.082-2.4141-1.6484-4.0469 0.22266-0.83594-0.27344-1.6875-1.1094-1.9102-0.83594-0.22266-1.6875 0.27344-1.9102 1.1094-0.61719 2.3203 0.25 4.8242 2.4453 7.043 1.9805 2.0078 4.8711 3.5859 8.1328 4.4531z"/>
  <path d="m60.207 29.969c1.1875 0 2.4062-0.09375 3.6406-0.28125 9.2266-1.4336 15.914-7.8984 14.902-14.41-1.0117-6.5117-9.3438-10.645-18.566-9.2148-9.2266 1.4336-15.914 7.8984-14.902 14.41 0.875 5.6406 7.2422 9.5 14.93 9.5zm0.44922-20.816c1.0625-0.16406 2.1133-0.24219 3.1367-0.24219 6.1055 0 11.234 2.8008 11.863 6.8477 0.73438 4.7266-4.8984 9.6953-12.293 10.84-7.3945 1.1445-14.266-1.8789-15-6.6055-0.73438-4.7266 4.8945-9.6953 12.293-10.84z"/>
  <path d="m56.02 22.953c1.3242 0.52734 2.8711 0.79688 4.5 0.79688 0.77734 0 1.5742-0.0625 2.375-0.1875 2.4766-0.38281 4.7383-1.332 6.3672-2.6641 1.8633-1.5234 2.7305-3.3945 2.4375-5.2617-0.13281-0.85156-0.9375-1.4336-1.7852-1.3047-0.85156 0.13281-1.4375 0.92969-1.3047 1.7852 0.10938 0.71875-0.375 1.582-1.332 2.3633-1.1875 0.97266-2.9609 1.6992-4.8672 1.9922-1.9062 0.29688-3.8164 0.14062-5.2422-0.42578-1.1484-0.45703-1.8711-1.1328-1.9844-1.8516-0.13281-0.85156-0.9375-1.4375-1.7852-1.3047-0.85156 0.13281-1.4375 0.92969-1.3047 1.7852 0.28906 1.8672 1.6797 3.3867 3.918 4.2734z"/>
  <path d="m48.711 93.289c3.1641 0 6.1641-0.70703 8.6133-2.0469 3.168-1.7344 5.0664-4.3164 5.3438-7.2734 0.5625-5.9609-5.582-11.254-13.984-12.043-8.3906-0.78516-15.426 3.2578-15.988 9.2227-0.5625 5.9609 5.582 11.254 13.984 12.043 0.67969 0.0625 1.3594 0.097656 2.0312 0.097656zm-12.902-11.848c0.35156-3.7188 5.1719-6.4844 10.898-6.4844 0.55469 0 1.1172 0.027344 1.6836 0.078125 6.4375 0.60547 11.551 4.5625 11.164 8.6406-0.17969 1.8906-1.5039 3.6055-3.7305 4.8242-2.4297 1.3281-5.5703 1.8906-8.8516 1.5781-6.4375-0.60547-11.551-4.5625-11.164-8.6406z"/>
  <path d="m48.508 87.84c4.3594 0 7.8086-2.0938 8.0898-5.082 0.082032-0.85937-0.55078-1.6211-1.4102-1.7031-0.86328-0.082032-1.6211 0.55078-1.7031 1.4102-0.12109 1.2969-2.7109 2.5078-6 2.2031-3.2891-0.30859-5.6055-1.9883-5.4844-3.2852 0.082031-0.85937-0.55078-1.6211-1.4102-1.7031-0.86328-0.082032-1.6211 0.55078-1.7031 1.4102-0.30859 3.2812 3.3359 6.2188 8.3047 6.6875 0.44531 0.042968 0.88281 0.0625 1.3164 0.0625z"/>
  <path d="m31.945 27.336c3.7773 0 6.8516-3.0742 6.8516-6.8516s-3.0742-6.8516-6.8516-6.8516c-3.7773 0-6.8516 3.0742-6.8516 6.8516s3.0742 6.8516 6.8516 6.8516zm0-10.578c2.0547 0 3.7266 1.6719 3.7266 3.7266s-1.6719 3.7266-3.7266 3.7266c-2.0547 0-3.7266-1.6719-3.7266-3.7266s1.6719-3.7266 3.7266-3.7266z"/>
  <path d="m85.32 80.383c0-2.7227-2.2148-4.9375-4.9375-4.9375-2.7227 0-4.9375 2.2148-4.9375 4.9375 0 2.7227 2.2148 4.9375 4.9375 4.9375 2.7227 0 4.9375-2.2148 4.9375-4.9375zm-6.75 0c0-1 0.8125-1.8125 1.8125-1.8125s1.8125 0.8125 1.8125 1.8125-0.8125 1.8125-1.8125 1.8125-1.8125-0.8125-1.8125-1.8125z"/>
  <path d="m14.777 75.5c0 2.957 2.4062 5.3633 5.3633 5.3633s5.3633-2.4062 5.3633-5.3633-2.4062-5.3633-5.3633-5.3633-5.3633 2.4062-5.3633 5.3633zm7.5977 0c0 1.2344-1.0039 2.2383-2.2383 2.2383s-2.2383-1.0039-2.2383-2.2383 1.0039-2.2383 2.2383-2.2383 2.2383 1.0039 2.2383 2.2383z"/>
 </g>
<text x="0.0" y="117.5" font-size="5.0" font-weight="bold" font-family="Arbeit Regular, Helvetica, Arial-Unicode, Arial, Sans-serif" fill="#000000">Created by nine</text><text x="0.0" y="122.5" font-size="5.0" font-weight="bold" font-family="Arbeit Regular, Helvetica, Arial-Unicode, Arial, Sans-serif" fill="#000000">from Noun Project</text></svg>